<?xml version="1.0" encoding="UTF-8"?>
<svg xmlns="http://www.w3.org/2000/svg" viewBox="0 0 545.3 164.1">
  <style type="text/css">
    .improving-primary-st0{fill:#005596;}
    .improving-primary-st1{fill:#00A4E4;}
  </style>
  <g>
    <g>
      <path class="improving-primary-st0" d="M452.1,10.5c0.9-3.8,4.7-6.1,8.5-5.2c3.8,0.9,6.1,4.7,5.2,8.5c-0.9,3.8-21.4,60.2-21.4,60.2 S451.2,14.3,452.1,10.5z"/>
      <path class="improving-primary-st0" d="M415.6,23.6c-1.2-3.7,0.9-7.7,4.6-8.8c3.7-1.2,7.7,0.9,8.8,4.6c1.2,3.7,10.1,56,10.1,56 S416.7,27.3,415.6,23.6z"/>
      <path class="improving-primary-st0" d="M390.1,54.7c-3.1-2.3-3.8-6.7-1.5-9.9c2.3-3.1,6.7-3.8,9.8-1.5c3.1,2.3,35.6,34.9,35.6,34.9 S393.2,57,390.1,54.7z"/>
      <path class="improving-primary-st0" d="M391.3,91.7c-3.9,0-7-3.2-7-7.1c0-3.9,3.2-7.1,7.1-7c3.9,0,42.2,7.1,42.2,7.1S395.2,91.7,391.3,91.7z"/>
      <path class="improving-primary-st0" d="M415.2,119.5c-2.8,2.7-7.3,2.5-9.9-0.3c-2.7-2.9-2.5-7.3,0.3-10c2.8-2.7,30.5-19,30.5-19 S418,116.9,415.2,119.5z"/>
      <path class="improving-primary-st0" d="M448.8,119.3c0.1,3.7-2.9,6.8-6.6,6.9c-3.7,0.1-6.8-2.9-6.9-6.6c-0.1-3.7,6.2-27.2,6.2-27.2 S448.8,115.6,448.8,119.3z"/>
      <path class="improving-primary-st0" d="M526.5,41.3c3.6-1.6,7.8,0,9.4,3.6c1.6,3.6-0.1,7.8-3.7,9.3c-3.6,1.6-79.9,27.6-79.9,27.6 S522.9,42.9,526.5,41.3z"/>
      <path class="improving-primary-st0" d="M491.3,17.8c2.7-3.1,7.2-3.6,10.2-1c2.9,2.5,3.1,7.1,0.5,10.2c-2.7,3.1-52.6,50.2-52.6,50.2 S488.6,20.9,491.3,17.8z"/>
    </g>
    <g>
      <polygon class="improving-primary-st1" points="22.2,141.1 15.2,141.1 15.2,104.3 11.5,102.9 11.5,98.3 22.3,98.3"/>
      <path class="improving-primary-st1" d="M97,141.2l-7.2,0l0-25.8c0-4.2-0.7-7.2-2.1-9.1c-1.4-1.9-3.8-2.8-7.2-2.9c-2.8,0-5.3,0.8-7.3,2.5 c-1.7,1.4-2.9,3.1-3.6,5.2l0,29.9l-7.2,0l0-25.8c0-4.2-0.7-7.2-2.1-9.1c-1.4-1.9-3.8-2.8-7.2-2.9c-2.8,0-5.3,0.8-7.3,2.5 c-1.7,1.4-2.9,3.1-3.6,5.2l0,30l-7,0l0.1-42.8l3.5,0l2.3,4.4c3.3-3.5,7.3-5.3,12.1-5.3c3,0,5.7,0.6,8.3,1.8 c2.6,1.2,4.5,2.8,5.8,4.8c3.5-4.4,7.9-6.5,13.3-6.5c11,0,16.5,5.6,16.5,16.8L97,141.2z"/>
    </g>
  </g>
</svg> 